<svg xmlns="http://www.w3.org/2000/svg" version="1.1" xmlns:xlink="http://www.w3.org/1999/xlink" xmlns:svgjs="http://svgjs.dev/svgjs" width="1000" height="623" viewBox="0 0 1000 623"><g transform="matrix(1,0,0,1,-0.6060606060606233,0.2522267206477409)"><svg viewBox="0 0 396 247" data-background-color="#2a160c" preserveAspectRatio="xMidYMid meet" height="623" width="1000" xmlns="http://www.w3.org/2000/svg" xmlns:xlink="http://www.w3.org/1999/xlink"><g id="tight-bounds" transform="matrix(1,0,0,1,0.2400000000000091,-0.09999999999999432)"><svg viewBox="0 0 395.52 247.2" height="247.2" width="395.52"><g><svg></svg></g><g><svg viewBox="0 0 395.52 247.2" height="247.2" width="395.52"><g transform="matrix(1,0,0,1,75.54432000000001,112.26883835122965)"><svg viewBox="0 0 244.43135999999996 22.662323297540695" height="22.662323297540695" width="244.43135999999996"><g><svg viewBox="0 0 244.43135999999996 22.662323297540695" height="22.662323297540695" width="244.43135999999996"><g><svg viewBox="0 0 244.43135999999996 22.662323297540695" height="22.662323297540695" width="244.43135999999996"><g><svg viewBox="0 0 244.43135999999996 22.662323297540695" height="22.662323297540695" width="244.43135999999996"><g id="textblocktransform"><svg viewBox="0 0 244.43135999999996 22.662323297540695" height="22.662323297540695" width="244.43135999999996" id="textblock"><g><svg viewBox="0 0 244.43135999999996 22.662323297540695" height="22.662323297540695" width="244.43135999999996"><g transform="matrix(1,0,0,1,0,0)"><svg width="244.43135999999996" viewBox="2.8299999237060547 -38.66999816894531 422.8800048828125 39.209999084472656" height="22.662323297540695" data-palette-color="#ffffff"><path d="M16.92 0L16.92-31.37 2.83-31.37 2.83-38.16 38.75-38.16 38.75-31.37 24.66-31.37 24.66 0 16.92 0ZM45.55-16.21L45.55-38.16 53.29-38.16 53.29-17.14Q53.29-14.55 54-12.54 54.71-10.52 56.11-9.13 57.52-7.74 59.59-7.02 61.67-6.3 64.43-6.3L64.43-6.3Q67.16-6.3 69.25-7.02 71.34-7.74 72.74-9.13 74.14-10.52 74.85-12.54 75.56-14.55 75.56-17.14L75.56-17.14 75.56-38.16 83.3-38.16 83.3-16.21Q83.3-12.45 82.03-9.38 80.76-6.3 78.34-4.1 75.93-1.9 72.42-0.71 68.92 0.49 64.43 0.49L64.43 0.49Q59.93 0.49 56.43-0.71 52.93-1.9 50.51-4.1 48.09-6.3 46.82-9.38 45.55-12.45 45.55-16.21L45.55-16.21ZM92.72 0L92.72-38.16 112.13-38.16Q116.52-38.16 119.75-37.24 122.97-36.33 125.09-34.59 127.22-32.86 128.25-30.37 129.29-27.88 129.29-24.73L129.29-24.73Q129.29-22.61 128.78-20.69 128.27-18.77 127.2-17.16 126.14-15.55 124.53-14.29 122.92-13.04 120.75-12.21L120.75-12.21 129.05 0 119.58 0 112.4-10.84 112.18-10.84 100.46-10.86 100.46 0 92.72 0ZM100.46-17.55L112.32-17.55Q114.52-17.55 116.17-18.07 117.82-18.58 118.93-19.51 120.04-20.43 120.59-21.77 121.14-23.1 121.14-24.73L121.14-24.73Q121.14-27.93 118.94-29.68 116.74-31.42 112.32-31.42L112.32-31.42 100.46-31.42 100.46-17.55ZM138.44 0L138.44-38.16 158.83-38.16Q162.57-38.16 165.34-37.37 168.11-36.57 169.94-35.18 171.77-33.79 172.66-31.87 173.55-29.96 173.55-27.73L173.55-27.73Q173.55-24.1 171.26-21.36L171.26-21.36Q173.89-19.8 175.19-17.31 176.48-14.82 176.48-11.65L176.48-11.65Q176.48-8.98 175.59-6.84 174.7-4.69 172.88-3.16 171.06-1.64 168.29-0.82 165.52 0 161.76 0L161.76 0 138.44 0ZM146.18-23.51L161.81-23.51Q162.81-23.51 163.76-23.44L163.76-23.44Q165.4-25 165.4-27L165.4-27Q165.4-29.08 163.77-30.21 162.15-31.35 159.03-31.35L159.03-31.35 146.18-31.35 146.18-23.51ZM146.18-6.74L161.96-6.74Q165.08-6.74 166.7-8.08 168.33-9.42 168.33-11.87L168.33-11.87Q168.33-14.31 166.7-15.67 165.08-17.04 161.96-17.04L161.96-17.04 146.18-17.04 146.18-6.74ZM182.07-19.19L182.07-19.19Q182.07-23.51 183.66-27.1 185.24-30.69 188.11-33.26 190.98-35.84 195-37.26 199.01-38.67 203.9-38.67L203.9-38.67Q208.75-38.67 212.78-37.26 216.81-35.84 219.68-33.26 222.55-30.69 224.14-27.1 225.72-23.51 225.72-19.19L225.72-19.19Q225.72-14.84 224.14-11.22 222.55-7.59 219.68-4.98 216.81-2.37 212.78-0.92 208.75 0.54 203.9 0.54L203.9 0.54Q199.01 0.54 195-0.92 190.98-2.37 188.11-4.98 185.24-7.59 183.66-11.22 182.07-14.84 182.07-19.19ZM189.81-19.19L189.81-19.19Q189.81-16.24 190.87-13.87 191.93-11.5 193.83-9.83 195.72-8.15 198.29-7.25 200.87-6.35 203.9-6.35L203.9-6.35Q206.92-6.35 209.5-7.25 212.07-8.15 213.95-9.83 215.83-11.5 216.91-13.87 217.98-16.24 217.98-19.19L217.98-19.19Q217.98-22.14 216.91-24.49 215.83-26.83 213.95-28.45 212.07-30.08 209.5-30.93 206.92-31.79 203.9-31.79L203.9-31.79Q200.87-31.79 198.29-30.93 195.72-30.08 193.83-28.45 191.93-26.83 190.87-24.49 189.81-22.14 189.81-19.19ZM262.41 0L262.41-31.37 248.32-31.37 248.32-38.16 284.24-38.16 284.24-31.37 270.15-31.37 270.15 0 262.41 0ZM290.24-19.19L290.24-19.19Q290.24-23.51 291.83-27.1 293.42-30.69 296.28-33.26 299.15-35.84 303.17-37.26 307.18-38.67 312.07-38.67L312.07-38.67Q316.93-38.67 320.95-37.26 324.98-35.84 327.85-33.26 330.72-30.69 332.31-27.1 333.89-23.51 333.89-19.19L333.89-19.19Q333.89-14.84 332.31-11.22 330.72-7.59 327.85-4.98 324.98-2.37 320.95-0.92 316.93 0.54 312.07 0.54L312.07 0.54Q307.18 0.54 303.17-0.92 299.15-2.37 296.28-4.98 293.42-7.59 291.83-11.22 290.24-14.84 290.24-19.19ZM297.98-19.19L297.98-19.19Q297.98-16.24 299.04-13.87 300.1-11.5 302-9.83 303.89-8.15 306.46-7.25 309.04-6.35 312.07-6.35L312.07-6.35Q315.09-6.35 317.67-7.25 320.25-8.15 322.13-9.83 324.01-11.5 325.08-13.87 326.15-16.24 326.15-19.19L326.15-19.19Q326.15-22.14 325.08-24.49 324.01-26.83 322.13-28.45 320.25-30.08 317.67-30.93 315.09-31.79 312.07-31.79L312.07-31.79Q309.04-31.79 306.46-30.93 303.89-30.08 302-28.45 300.1-26.83 299.04-24.49 297.98-22.14 297.98-19.19ZM354.18 0L354.18-9.45 337.5-38.16 346.27-38.16 358.01-16.46 369.61-38.16 378.37-38.16 361.92-9.5 361.92 0 354.18 0ZM381.89-5.08L386.01-11.35Q388.09-10.18 390.22-9.24 392.36-8.3 394.66-7.65 396.95-7.01 399.48-6.67 402-6.32 404.86-6.32L404.86-6.32Q408.3-6.32 410.72-6.77 413.14-7.23 414.66-8.02 416.19-8.81 416.88-9.91 417.58-11.01 417.58-12.3L417.58-12.3Q417.58-14.38 415.85-15.59 414.11-16.8 410.5-16.8L410.5-16.8Q408.91-16.8 407.16-16.59 405.4-16.38 403.6-16.14 401.81-15.89 400.06-15.69 398.32-15.48 396.78-15.48L396.78-15.48Q394.22-15.48 391.86-16.14 389.5-16.8 387.69-18.12 385.87-19.43 384.79-21.41 383.72-23.39 383.72-26.03L383.72-26.03Q383.72-27.59 384.14-29.13 384.57-30.66 385.51-32.07 386.45-33.47 387.94-34.68 389.43-35.89 391.54-36.77 393.65-37.65 396.43-38.15 399.2-38.65 402.74-38.65L402.74-38.65Q405.3-38.65 407.89-38.37 410.48-38.09 412.93-37.57 415.38-37.06 417.65-36.34 419.92-35.62 421.88-34.74L421.88-34.74 418.48-28.49Q416.87-29.2 415.02-29.8 413.16-30.4 411.13-30.83 409.11-31.27 406.95-31.53 404.79-31.79 402.54-31.79L402.54-31.79Q399.34-31.79 397.28-31.32 395.22-30.86 394-30.14 392.78-29.42 392.3-28.53 391.82-27.64 391.82-26.76L391.82-26.76Q391.82-25.05 393.36-23.96 394.9-22.88 398.05-22.88L398.05-22.88Q399.32-22.88 400.97-23.06 402.61-23.24 404.43-23.46 406.25-23.68 408.14-23.86 410.04-24.05 411.82-24.05L411.82-24.05Q415.19-24.05 417.79-23.29 420.39-22.53 422.15-21.13 423.9-19.73 424.81-17.74 425.71-15.75 425.71-13.28L425.71-13.28Q425.71-9.99 424.18-7.41 422.66-4.83 419.84-3.06 417.02-1.29 413.04-0.38 409.06 0.54 404.18 0.54L404.18 0.54Q400.95 0.54 397.88 0.13 394.8-0.27 391.98-1.01 389.16-1.76 386.61-2.8 384.06-3.83 381.89-5.08L381.89-5.08Z" opacity="1" transform="matrix(1,0,0,1,0,0)" fill="#ffffff" class="undefined-text-0" data-fill-palette-color="primary" id="text-0"></path></svg></g></svg></g></svg></g></svg></g></svg></g></svg></g></svg></g><path d="M225.647 106.269L225.647 40.812 391.223 40.812 391.223 206.388 225.647 206.388 225.647 140.931 227.691 140.931 227.691 204.344 389.18 204.344 389.18 42.856 227.691 42.856 227.691 106.269Z" fill="#ffffff" stroke="transparent" data-fill-palette-color="primary"></path></svg></g><defs></defs></svg><rect width="395.52" height="247.2" fill="none" stroke="none" visibility="hidden"></rect></g></svg></g></svg>